{
  "source": "C:\\Users\\Peter\\Desktop\\stuff\\MIUN\\quantitative_research\\video_compression\\videos\\BVI-HD\\BVI-HD_CDVL_videos\\ORIG\\Toys_1920x1080_30fps.mp4",
  "output": "C:\\Users\\Peter\\Desktop\\stuff\\MIUN\\quantitative_research\\video_compression\\compressed_videos\\BVI-HD\\h264\\3\\Toys_1920x1080_30fps_h264.mp4",
  "codec": "h264",
  "ok": "Input #0, mov,mp4,m4a,3gp,3g2,mj2, from 'C:\\Users\\Peter\\Desktop\\stuff\\MIUN\\quantitative_research\\video_compression\\videos\\BVI-HD\\BVI-HD_CDVL_videos\\ORIG\\Toys_1920x1080_30fps.mp4':\n  Metadata:\n    major_brand     : isom\n    minor_version   : 512\n    compatible_brands: isomiso2avc1mp41\n    encoder         : Lavf54.28.101\n  Duration: 00:00:05.00, start: 0.000000, bitrate: 270887 kb/s\n  Stream #0:0[0x1](und): Video: h264 (High 4:4:4 Predictive) (avc1 / 0x31637661), yuv420p(progressive), 1920x1080, 270883 kb/s, 30 fps, 30 tbr, 30 tbn (default)\n    Metadata:\n      handler_name    : VideoHandler\n      vendor_id       : [0][0][0][0]\n[out#0/mp4 @ 0000026e66959a40] Codec AVOption b:a (set bitrate (in bits/s)) has not been used for any stream. The most likely reason is either wrong type (e.g. a video option with no video streams) or that it is a private option of some decoder which was not actually used for any stream.\nStream mapping:\n  Stream #0:0 -> #0:0 (h264 (native) -> h264 (libx264))\nPress [q] to stop, [?] for help\n[libx264 @ 0000026e66f02c00] using cpu capabilities: MMX2 SSE2Fast SSSE3 SSE4.2 AVX FMA3 BMI2 AVX2\n[libx264 @ 0000026e66f02c00] profile High, level 5.0, 4:2:0, 8-bit\n[libx264 @ 0000026e66f02c00] 264 - core 165 r3222 b35605a - H.264/MPEG-4 AVC codec - Copyleft 2003-2025 - http://www.videolan.org/x264.html - options: cabac=1 ref=5 deblock=1:0:0 analyse=0x3:0x113 me=hex subme=8 psy=1 psy_rd=1.00:0.00 mixed_ref=1 me_range=16 chroma_me=1 trellis=2 8x8dct=1 cqm=0 deadzone=21,11 fast_pskip=1 chroma_qp_offset=-2 threads=18 lookahead_threads=3 sliced_threads=0 nr=0 decimate=1 interlaced=0 bluray_compat=0 constrained_intra=0 bframes=3 b_pyramid=2 b_adapt=1 b_bias=0 direct=3 weightb=1 open_gop=0 weightp=2 keyint=250 keyint_min=25 scenecut=40 intra_refresh=0 rc_lookahead=50 rc=cbr mbtree=1 bitrate=3000 ratetol=1.0 qcomp=0.60 qpmin=0 qpmax=69 qpstep=4 vbv_maxrate=3000 vbv_bufsize=3000 nal_hrd=none filler=0 ip_ratio=1.40 aq=1:1.00\nOutput #0, mp4, to 'C:\\Users\\Peter\\Desktop\\stuff\\MIUN\\quantitative_research\\video_compression\\compressed_videos\\BVI-HD\\h264\\3\\Toys_1920x1080_30fps_h264.mp4':\n  Metadata:\n    major_brand     : isom\n    minor_version   : 512\n    compatible_brands: isomiso2avc1mp41\n    encoder         : Lavf62.3.100\n  Stream #0:0(und): Video: h264 (avc1 / 0x31637661), yuv420p(tv, progressive), 1920x1080, q=2-31, 3000 kb/s, 30 fps, 15360 tbn (default)\n    Metadata:\n      encoder         : Lavc62.11.100 libx264\n      handler_name    : VideoHandler\n      vendor_id       : [0][0][0][0]\n    Side data:\n      cpb: bitrate max/min/avg: 3000000/0/3000000 buffer size: 3000000 vbv_delay: N/A\nframe=    0 fps=0.0 q=0.0 size=       0KiB time=N/A bitrate=N/A speed=N/A elapsed=0:00:00.51    \nframe=    0 fps=0.0 q=0.0 size=       0KiB time=N/A bitrate=N/A speed=N/A elapsed=0:00:01.11    \nframe=    0 fps=0.0 q=0.0 size=       0KiB time=N/A bitrate=N/A speed=N/A elapsed=0:00:01.66    \nframe=   13 fps=5.8 q=37.0 size=       0KiB time=00:00:00.23 bitrate=   1.6kbits/s speed=0.105x elapsed=0:00:02.22    \nframe=   29 fps= 10 q=37.0 size=     256KiB time=00:00:00.76 bitrate=2735.9kbits/s speed=0.269x elapsed=0:00:02.84    \nframe=   49 fps= 14 q=37.0 size=     256KiB time=00:00:01.46 bitrate=1430.1kbits/s speed=0.429x elapsed=0:00:03.41    \nframe=   72 fps= 18 q=37.0 size=     512KiB time=00:00:02.33 bitrate=1797.7kbits/s speed=0.584x elapsed=0:00:03.99    \nframe=   96 fps= 21 q=36.0 size=     768KiB time=00:00:03.13 bitrate=2008.0kbits/s speed=0.693x elapsed=0:00:04.52    \nframe=  120 fps= 24 q=35.0 size=    1024KiB time=00:00:03.93 bitrate=2132.8kbits/s speed=0.779x elapsed=0:00:05.04    \nframe=  141 fps= 25 q=-1.0 size=    1280KiB time=00:00:04.60 bitrate=2279.6kbits/s speed=0.82x elapsed=0:00:05.60    \n[mp4 @ 0000026e66961440] Starting second pass: moving the moov atom to the beginning of the file\n[out#0/mp4 @ 0000026e66959a40] video:1486KiB audio:0KiB subtitle:0KiB other streams:0KiB global headers:0KiB muxing overhead: 0.175240%\nframe=  150 fps= 26 q=-1.0 Lsize=    1489KiB time=00:00:04.93 bitrate=2472.3kbits/s speed=0.871x elapsed=0:00:05.66    \n[libx264 @ 0000026e66f02c00] frame I:1     Avg QP:33.87  size: 78352\n[libx264 @ 0000026e66f02c00] frame P:38    Avg QP:35.53  size: 24690\n[libx264 @ 0000026e66f02c00] frame B:111   Avg QP:40.94  size:  4546\n[libx264 @ 0000026e66f02c00] consecutive B-frames:  0.7%  1.3%  2.0% 96.0%\n[libx264 @ 0000026e66f02c00] mb I  I16..4: 19.7% 72.2%  8.1%\n[libx264 @ 0000026e66f02c00] mb P  I16..4:  2.4%  4.8%  0.3%  P16..4: 47.0% 11.7%  5.2%  0.0%  0.0%    skip:28.6%\n[libx264 @ 0000026e66f02c00] mb B  I16..4:  0.0%  0.0%  0.0%  B16..8: 37.4%  1.7%  0.2%  direct: 0.3%  skip:60.2%  L0:30.4% L1:67.7% BI: 1.9%\n[libx264 @ 0000026e66f02c00] 8x8 transform intra:65.7% inter:79.9%\n[libx264 @ 0000026e66f02c00] direct mvs  spatial:91.0% temporal:9.0%\n[libx264 @ 0000026e66f02c00] coded y,uvDC,uvAC intra: 44.9% 30.1% 3.7% inter: 5.4% 2.3% 0.0%\n[libx264 @ 0000026e66f02c00] i16 v,h,dc,p: 32% 22%  9% 37%\n[libx264 @ 0000026e66f02c00] i8 v,h,dc,ddl,ddr,vr,hd,vl,hu:  9%  7%  7%  9% 16% 12% 17% 10% 13%\n[libx264 @ 0000026e66f02c00] i4 v,h,dc,ddl,ddr,vr,hd,vl,hu:  9%  5%  6%  9% 16% 13% 18%  9% 15%\n[libx264 @ 0000026e66f02c00] i8c dc,h,v,p: 77% 13%  7%  3%\n[libx264 @ 0000026e66f02c00] Weighted P-Frames: Y:7.9% UV:0.0%\n[libx264 @ 0000026e66f02c00] ref P L0: 76.8% 10.7%  9.9%  1.4%  1.1%  0.1%\n[libx264 @ 0000026e66f02c00] ref B L0: 97.2%  2.2%  0.4%  0.1%\n[libx264 @ 0000026e66f02c00] ref B L1: 99.3%  0.7%\n[libx264 @ 0000026e66f02c00] kb/s:2433.84\n",
  "seconds": 5.949459791183472,
  "probe_out": {}
}